<?xml version="1.0" encoding="UTF-8"?>
<svg xmlns="http://www.w3.org/2000/svg" id="Layer_1" data-name="Layer 1" viewBox="0 0 24 24">
  <path d="m2.5,2.5c0-1.381,1.119-2.5,2.5-2.5s2.5,1.119,2.5,2.5-1.119,2.5-2.5,2.5-2.5-1.119-2.5-2.5Zm9.5,7.5c1.381,0,2.5-1.119,2.5-2.5s-1.119-2.5-2.5-2.5-2.5,1.119-2.5,2.5,1.119,2.5,2.5,2.5Zm1,1h-2c-1.654,0-3,1.346-3,3v6h1v4h2v-4h2v4h2v-4h1v-6c0-1.654-1.346-3-3-3Zm-5.5-3.5c0-.494.099-.96.246-1.405-.007-.002-.013-.004-.02-.006-.233-.058-.476-.089-.726-.089H3c-1.654,0-3,1.346-3,3v8h2v7h2v-7h2v-3c0-1.715.87-3.23,2.19-4.131-.432-.688-.69-1.496-.69-2.369Zm11.5-2.5c-1.381,0-2.5-1.119-2.5-2.5S17.619,0,19,0s2.5,1.119,2.5,2.5-1.119,2.5-2.5,2.5Zm-3.19,4.869c1.32.901,2.19,2.416,2.19,4.131v3h2s0,7,0,7h2v-7s2,0,2,0v-8c0-1.654-1.346-3-3-3h-4c-.25,0-.493.031-.726.089-.007.002-.013.004-.02.006.147.444.246.911.246,1.405,0,.873-.257,1.681-.69,2.369Z"/>
</svg>
